<?xml version="1.0" standalone="no"?>
<!DOCTYPE svg PUBLIC "-//W3C//DTD SVG 20010904//EN"
 "http://www.w3.org/TR/2001/REC-SVG-20010904/DTD/svg10.dtd">
<svg version="1.0" xmlns="http://www.w3.org/2000/svg"
 width="80.000000pt" height="80.000000pt" viewBox="0 0 80.000000 80.000000"
 preserveAspectRatio="xMidYMid meet">

<g transform="translate(0.000000,80.000000) scale(0.100000,-0.100000)"
fill="#000000" stroke="none">
<path d="M383 463 c15 -2 37 -2 50 0 12 2 0 4 -28 4 -27 0 -38 -2 -22 -4z"/>
<path d="M186 399 c4 -8 11 -32 15 -54 7 -39 7 -39 6 9 -1 32 -7 51 -16 54
-10 3 -11 0 -5 -9z"/>
<path d="M597 403 c-4 -3 -6 -25 -6 -47 l1 -41 7 35 c4 20 11 41 15 48 8 13
-6 17 -17 5z"/>
<path d="M238 365 c6 -42 30 -65 67 -65 34 0 61 22 67 55 2 14 11 20 28 20 17
0 26 -6 28 -20 6 -33 33 -55 67 -55 37 0 61 23 67 65 l4 30 -166 0 -166 0 4
-30z"/>
<path d="M551 202 c-2 -19 -122 -92 -153 -92 -26 0 -71 24 -130 70 -31 24 -36
14 -14 -29 16 -30 61 -68 114 -95 30 -15 34 -15 65 0 79 40 134 103 124 142
-3 9 -5 11 -6 4z"/>
</g>
</svg>
